<?xml version="1.0" encoding="UTF-8" standalone="yes"?>
<svg xmlns="http://www.w3.org/2000/svg" xmlns:xlink="http://www.w3.org/1999/xlink" width="500px" height="500px" viewBox="0 0 500 500" version="1.1" fill="#000000">
  <g id="surface173888">
    <path style=" stroke:none;fill-rule:nonzero;fill:#000000;fill-opacity:1;" d="M 18.125 20 C 17.8125 20.078125 17.5 20.195312 17.1875 20.3125 C 7.460938 21.679688 0 29.921875 0 40 C 0 51.054688 8.945312 60 20 60 C 31.054688 60 40 51.054688 40 40 L 86.5625 40 C 99.023438 40 105.507812 42.578125 110.3125 46.875 C 115.039062 51.132812 118.867188 58.320312 122.1875 69.375 L 202.1875 392.1875 C 205.195312 403.632812 208.203125 415.429688 216.5625 425 C 220.039062 428.984375 224.414062 432.226562 229.6875 434.6875 C 223.828125 441.640625 220 450.273438 220 460 C 220 481.992188 238.007812 500 260 500 C 281.992188 500 300 481.992188 300 460 C 300 452.65625 297.851562 445.9375 294.375 440 L 355.625 440 C 352.148438 445.9375 350 452.65625 350 460 C 350 481.992188 368.007812 500 390 500 C 411.992188 500 430 481.992188 430 460 C 430 449.726562 425.820312 440.546875 419.375 433.4375 C 420.507812 430.390625 420.039062 426.953125 418.203125 424.296875 C 416.328125 421.601562 413.28125 420 410 420 L 257.1875 420 C 241.757812 420 235.46875 416.71875 231.25 411.875 C 227.070312 407.070312 224.53125 398.671875 221.5625 387.5 L 221.5625 387.1875 L 214.6875 360 L 398.125 360 C 402.304688 360 406.09375 357.382812 407.5 353.4375 L 479.375 163.4375 C 480.546875 160.390625 480.117188 156.953125 478.242188 154.257812 C 476.367188 151.5625 473.28125 149.960938 470 150 L 162.8125 150 L 141.5625 64.6875 C 141.5625 64.492188 141.5625 64.257812 141.5625 64.0625 C 137.734375 51.171875 132.773438 40 123.75 31.875 C 114.726562 23.75 102.03125 20 86.5625 20 L 20 20 C 19.6875 20 19.375 20 19.0625 20 C 18.75 20 18.4375 20 18.125 20 Z M 167.8125 170 L 455.625 170 L 391.25 340 L 210 340 Z M 260 440 C 271.171875 440 280 448.828125 280 460 C 280 471.171875 271.171875 480 260 480 C 248.828125 480 240 471.171875 240 460 C 240 448.828125 248.828125 440 260 440 Z M 390 440 C 401.171875 440 410 448.828125 410 460 C 410 471.171875 401.171875 480 390 480 C 378.828125 480 370 471.171875 370 460 C 370 448.828125 378.828125 440 390 440 Z M 390 440 "/>
  </g>
</svg>
